<svg width="60" height="61" viewBox="0 0 60 61" xmlns="http://www.w3.org/2000/svg" xmlns:xlink="http://www.w3.org/1999/xlink"><defs><path d="M36.376 35.627l1.101-1.36s6.682 1.425 12.253 5.937c5.571 4.51 8.355 10.75 8.355 10.75l-1.586 1.96c-1.285-.498-2.957.029-4.05 1.38-1.094 1.35-1.262 3.095-.508 4.248l-1.913 2.362s-3.44-6.287-8.591-10.459c-5.152-4.172-12.016-6.229-12.016-6.229l2.278-2.814c1.318.774 3.219.285 4.422-1.2 1.202-1.486 1.286-3.447.255-4.575zm19.978 8.975c-1.874-2.265-3.94-4.49-5.813-5.902-1.554-1.17-3.353-2.354-5.109-3.437a16.78 16.78 0 0 0 .784-5.09c0-9.232-7.442-16.717-16.621-16.717-9.18 0-16.622 7.485-16.622 16.718s7.442 16.718 16.622 16.718c.714 0 1.418-.046 2.109-.134 2.435 1.04 5.286 2.494 7.578 4.337 1.645 1.322 3.678 3.246 5.673 5.242A29.73 29.73 0 0 1 30 60.347c-16.569 0-30-13.509-30-30.173C0 13.509 13.431 0 30 0c16.569 0 30 13.51 30 30.174a30.176 30.176 0 0 1-3.646 14.428z" id="a"/></defs><g fill="none" fill-rule="evenodd"><mask id="b" fill="#fff"><use xlink:href="#a"/></mask><use fill="#FFF" xlink:href="#a"/><path d="M38.112 52.815c-3.629-4.113-11.46-8.91-11.46-8.91l5.53 1.672 13.21 9.954-1.338 5.8s-2.313-4.404-5.942-8.516z" fill="#000" opacity=".1" mask="url(#b)"/></g></svg>