<svg xmlns="http://www.w3.org/2000/svg" xmlns:xlink="http://www.w3.org/1999/xlink" viewBox="0 0 488.42 443.72"><defs><style>.cls-1{isolation:isolate;}.cls-2{fill:url(#linear-gradient);}.cls-3{fill:url(#linear-gradient-2);}.cls-4{fill:#ffe0e0;}.cls-29,.cls-30,.cls-31,.cls-37,.cls-38,.cls-39,.cls-40,.cls-41,.cls-42,.cls-5,.cls-6,.cls-7{opacity:0.35;}.cls-5{fill:url(#linear-gradient-3);}.cls-6{fill:url(#linear-gradient-4);}.cls-7{fill:url(#linear-gradient-5);}.cls-8{fill:#fff;}.cls-9{fill:url(#linear-gradient-6);}.cls-10{fill:url(#linear-gradient-7);}.cls-11{fill:url(#linear-gradient-8);}.cls-12{fill:#554f6c;}.cls-13{fill:#ff6c6c;}.cls-14{fill:#ff8989;}.cls-15{fill:url(#linear-gradient-9);}.cls-16{fill:#fab074;}.cls-17{fill:#755079;}.cls-18{fill:url(#linear-gradient-10);}.cls-19{fill:url(#linear-gradient-11);}.cls-20{fill:url(#linear-gradient-12);}.cls-21{fill:#4d4d4d;}.cls-22{fill:#6a4741;}.cls-23{fill:url(#radial-gradient);}.cls-24{fill:#9a6391;}.cls-25{fill:#925d98;}.cls-26{fill:#6f4c73;}.cls-27{fill:url(#linear-gradient-13);}.cls-28{fill:url(#linear-gradient-14);}.cls-29{fill:url(#linear-gradient-15);}.cls-30{fill:url(#linear-gradient-16);}.cls-31{fill:url(#linear-gradient-17);}.cls-32,.cls-33{mix-blend-mode:soft-light;}.cls-32{fill:url(#linear-gradient-18);}.cls-33{fill:url(#linear-gradient-19);}.cls-34{fill:none;stroke-miterlimit:10;stroke-width:3px;stroke:url(#linear-gradient-20);}.cls-35{fill:url(#linear-gradient-21);}.cls-36{fill:#f7f7f7;}.cls-37{fill:url(#linear-gradient-22);}.cls-38{fill:url(#linear-gradient-23);}.cls-39{fill:url(#linear-gradient-24);}.cls-40{fill:url(#linear-gradient-25);}.cls-41{fill:url(#linear-gradient-26);}.cls-42{fill:url(#linear-gradient-27);}.cls-43{fill:url(#radial-gradient-2);}.cls-44{fill:#2d8f65;}.cls-45{fill:url(#linear-gradient-28);}</style><linearGradient id="linear-gradient" x1="-361.74" y1="2481.75" x2="-599.39" y2="2481.75" gradientTransform="translate(-410.27 2921.78) rotate(180)" gradientUnits="userSpaceOnUse"><stop offset="0" stop-color="#b7deff"/><stop offset="1" stop-color="#fff"/></linearGradient><linearGradient id="linear-gradient-2" x1="93.89" y1="397.43" x2="374.29" y2="397.43" gradientTransform="matrix(1, 0, 0, 1, 0, 0)" xlink:href="#linear-gradient"/><linearGradient id="linear-gradient-3" x1="160.04" y1="220.08" x2="281.87" y2="220.08" gradientUnits="userSpaceOnUse"><stop offset="0" stop-color="#d9e3f4"/><stop offset="1" stop-color="#bed5ea"/></linearGradient><linearGradient id="linear-gradient-4" x1="121.63" y1="185.26" x2="281.87" y2="185.26" xlink:href="#linear-gradient-3"/><linearGradient id="linear-gradient-5" x1="113.56" y1="151.06" x2="281.87" y2="151.06" xlink:href="#linear-gradient-3"/><linearGradient id="linear-gradient-6" x1="301.99" y1="401.61" x2="354.23" y2="401.61" gradientTransform="matrix(1, 0, 0, 1, 0, 0)" xlink:href="#linear-gradient"/><linearGradient id="linear-gradient-7" x1="392.58" y1="401.61" x2="449.76" y2="401.61" gradientTransform="matrix(1, 0, 0, 1, 0, 0)" xlink:href="#linear-gradient"/><linearGradient id="linear-gradient-8" x1="58.29" y1="441.92" x2="93.61" y2="441.92" gradientUnits="userSpaceOnUse"><stop offset="0" stop-color="#dfebf8"/><stop offset="1" stop-color="#eff9fe"/></linearGradient><linearGradient id="linear-gradient-9" x1="100.93" y1="457.62" x2="135.23" y2="457.62" xlink:href="#linear-gradient-8"/><linearGradient id="linear-gradient-10" x1="270.35" y1="289.32" x2="367.71" y2="289.32" gradientTransform="matrix(1, 0, 0, 1, 0, 0)" xlink:href="#linear-gradient"/><linearGradient id="linear-gradient-11" x1="349.98" y1="293.88" x2="285.5" y2="331.98" gradientUnits="userSpaceOnUse"><stop offset="0" stop-color="#b7deff"/><stop offset="0.67" stop-color="#e7f4ff" stop-opacity="0.33"/><stop offset="1" stop-color="#fff" stop-opacity="0"/></linearGradient><linearGradient id="linear-gradient-12" x1="456.31" y1="808.05" x2="509.98" y2="808.05" gradientTransform="translate(-290.29 -431.44) rotate(-11.26)" xlink:href="#linear-gradient"/><radialGradient id="radial-gradient" cx="264.2" cy="178.18" r="50" gradientTransform="translate(0.19 0.69) scale(0.97 0.98)" gradientUnits="userSpaceOnUse"><stop offset="0" stop-color="#006cb7"/><stop offset="1" stop-color="#002857"/></radialGradient><linearGradient id="linear-gradient-13" x1="-5837.78" y1="-76.78" x2="-5752.5" y2="-76.78" gradientTransform="matrix(-0.99, -0.13, -0.13, 0.99, -5592.48, -395.14)" gradientUnits="userSpaceOnUse"><stop offset="0" stop-color="#a3b4dd"/><stop offset="1" stop-color="#e4edf8"/></linearGradient><linearGradient id="linear-gradient-14" x1="-5887.98" y1="-44.94" x2="-5773.17" y2="-44.94" xlink:href="#linear-gradient-13"/><linearGradient id="linear-gradient-15" x1="-4780.21" y1="2291.52" x2="-4716.32" y2="2291.52" gradientTransform="translate(-4373.21 2471.47) rotate(180)" xlink:href="#linear-gradient-3"/><linearGradient id="linear-gradient-16" x1="-4800.35" y1="2273.16" x2="-4716.32" y2="2273.16" gradientTransform="translate(-4373.21 2471.47) rotate(180)" xlink:href="#linear-gradient-3"/><linearGradient id="linear-gradient-17" x1="-4804.58" y1="2255.04" x2="-4716.32" y2="2255.04" gradientTransform="translate(-4373.21 2471.47) rotate(180)" xlink:href="#linear-gradient-3"/><linearGradient id="linear-gradient-18" x1="358.67" y1="368.87" x2="343.66" y2="438.34" gradientUnits="userSpaceOnUse"><stop offset="0" stop-color="#fff" stop-opacity="0"/><stop offset="1" stop-color="#fff"/></linearGradient><linearGradient id="linear-gradient-19" x1="364.17" y1="386.86" x2="344.46" y2="425.28" xlink:href="#linear-gradient-18"/><linearGradient id="linear-gradient-20" x1="367.39" y1="429.01" x2="376.35" y2="429.01" gradientTransform="matrix(1, 0, 0, 1, 0, 0)" xlink:href="#linear-gradient-13"/><linearGradient id="linear-gradient-21" x1="345.45" y1="429.4" x2="371.93" y2="429.4" gradientTransform="matrix(1, 0, 0, 1, 0, 0)" xlink:href="#linear-gradient-13"/><linearGradient id="linear-gradient-22" x1="82.78" y1="95.46" x2="111.09" y2="95.46" xlink:href="#linear-gradient-3"/><linearGradient id="linear-gradient-23" x1="116.04" y1="95.46" x2="144.35" y2="95.46" xlink:href="#linear-gradient-3"/><linearGradient id="linear-gradient-24" x1="61.31" y1="326" x2="89.62" y2="326" xlink:href="#linear-gradient-3"/><linearGradient id="linear-gradient-25" x1="94.57" y1="326" x2="122.88" y2="326" xlink:href="#linear-gradient-3"/><linearGradient id="linear-gradient-26" x1="380.56" y1="155.51" x2="391.87" y2="155.51" xlink:href="#linear-gradient-3"/><linearGradient id="linear-gradient-27" x1="393.84" y1="155.51" x2="405.15" y2="155.51" xlink:href="#linear-gradient-3"/><radialGradient id="radial-gradient-2" cx="1940.78" cy="319.31" r="62.86" gradientTransform="matrix(-0.97, 0, 0, 0.98, 2345.85, 0.69)" gradientUnits="userSpaceOnUse"><stop offset="0" stop-color="#9dd19d"/><stop offset="0.41" stop-color="#80c88b"/><stop offset="1" stop-color="#51ba6c"/></radialGradient><linearGradient id="linear-gradient-28" x1="426.13" y1="422.93" x2="478.82" y2="422.93" gradientTransform="matrix(1, 0, 0, 1, 0, 0)" xlink:href="#linear-gradient-13"/></defs><title>header2</title><g class="cls-1"><g id="Layer_1" data-name="Layer 1"><ellipse class="cls-2" cx="127.65" cy="440.03" rx="118.83" ry="3.69"/><ellipse class="cls-3" cx="348.23" cy="397.43" rx="140.2" ry="8.78"/><path class="cls-4" d="M369.61,118.14a94.28,94.28,0,0,0-54.78,17.46A129.82,129.82,0,0,0,302.25,115C245.33,38.83,136.63,10.19,64.82,75.86-5.24,139.92-8.42,226.94,41.26,295.76c78,108,216.35,42.58,216.35,42.58L315.89,374,308,309.39s2.87-6.27,6.54-16.88a94.42,94.42,0,0,0,55.09,17.66c52.62,0,95.28-43,95.28-96S422.23,118.14,369.61,118.14Z" transform="translate(-7.58 -39.28)"/><path class="cls-5" d="M271.8,230.23H170.11a10.15,10.15,0,0,1,0-20.29H271.8a10.15,10.15,0,0,1,0,20.29Z" transform="translate(-7.58 -39.28)"/><path class="cls-6" d="M271.8,195.41H131.7a10.15,10.15,0,0,1,0-20.29H271.8a10.15,10.15,0,0,1,0,20.29Z" transform="translate(-7.58 -39.28)"/><path class="cls-7" d="M271.8,161.2H123.63a10.15,10.15,0,0,1,0-20.29H271.8a10.15,10.15,0,0,1,0,20.29Z" transform="translate(-7.58 -39.28)"/><path class="cls-8" d="M271.8,157.55H123.63a10.15,10.15,0,0,1,0-20.29H271.8a10.15,10.15,0,0,1,0,20.29Z" transform="translate(-7.58 -39.28)"/><path class="cls-8" d="M271.8,192.24H131.7a10.15,10.15,0,0,1,0-20.29H271.8a10.15,10.15,0,0,1,0,20.29Z" transform="translate(-7.58 -39.28)"/><path class="cls-8" d="M271.8,226.92H170.11a10.15,10.15,0,0,1,0-20.29H271.8a10.15,10.15,0,0,1,0,20.29Z" transform="translate(-7.58 -39.28)"/><ellipse class="cls-9" cx="343.1" cy="401.61" rx="26.12" ry="1.81"/><ellipse class="cls-10" cx="444.39" cy="401.61" rx="28.59" ry="1.98"/><path class="cls-11" d="M59.11,440.56l12.65-12.77,21.85,7.81s-10.4,12.5-12.88,17-8.09,4.45-14.44.59S56.66,445.36,59.11,440.56Z" transform="translate(-7.58 -39.28)"/><path class="cls-12" d="M82.75,449.49s-4.17,6-10,4c-5-1.73-16.05-8.38-13.67-13L23.92,428.27a5.71,5.71,0,0,0-6.5,2.37,4,4,0,0,0-.27,4.74c2.2,3.51,37.54,23.35,51.8,30.65a7.19,7.19,0,0,0,9.66-3.73C80,459,82.75,449.49,82.75,449.49Z" transform="translate(-7.58 -39.28)"/><path class="cls-13" d="M308.53,253.1,319,239.45s21.58-5.6,53.13,4.05c70,21.43,45.75,141.31,8.82,172.85-20.83,17.79-52.45,27.58-109.14,22-63.22-6.21-77.63-51.52-64.45-77.07,8.05-15.62,1.35-4.58,28.76-32S285.5,276.23,308.53,253.1Z" transform="translate(-7.58 -39.28)"/><path class="cls-14" d="M330.05,266.33c56.2,2.45,42.51,47.81,17.8,86.56-15.43,24.22-37,32.82-70,30.15-37.39-3-68.38-27.88-33.29-73.87S288.75,264.53,330.05,266.33Z" transform="translate(-7.58 -39.28)"/><path class="cls-14" d="M301,289.32s-72.82,42.95-57.2,59.85H226.45s27.67-66.82,71-87.29Z" transform="translate(-7.58 -39.28)"/><path class="cls-15" d="M101.44,457.74l11.24-14,22.55,5.43s-9,13.54-11,18.29-7.57,5.29-14.3,2.12S99.51,462.78,101.44,457.74Z" transform="translate(-7.58 -39.28)"/><path class="cls-12" d="M125.89,464.1s-3.52,6.44-9.49,5.07c-5.16-1.18-16.84-6.62-15-11.43l-36.28-8.47A5.7,5.7,0,0,0,59,452.32a4,4,0,0,0,.23,4.74c2.55,3.26,39.77,19.22,54.72,25a7.19,7.19,0,0,0,9.21-4.74C124.15,473.88,125.89,464.1,125.89,464.1Z" transform="translate(-7.58 -39.28)"/><path class="cls-16" d="M308.55,235.19l8.88-1.63,38.17,9.85L365.83,265,351,341.76l-35.5,1.69-31.92-4.7s13.1-44.28,15.32-59.48C299.9,272.74,302.14,236.54,308.55,235.19Z" transform="translate(-7.58 -39.28)"/><path class="cls-16" d="M310.89,222.83a112.72,112.72,0,0,1-.56,12.36c-3.17,18.21,27.43.81,27.43.81l-6.57-.81-7.09-27.13-7.31-.7Z" transform="translate(-7.58 -39.28)"/><path class="cls-17" d="M168.25,311.85c-3.91,2-14.61,14.52-24.31,26.91C124.34,363.81,69,430,69,430l26.37,15.35,89.9-89.14L271,363.54l40.69-25.46s-15.24-2.06-20.3-4.39-9.88-7.23-9-6.54l-21.72-.59L190,313s-15.08-2-26-.87" transform="translate(-7.58 -39.28)"/><polygon class="cls-16" points="262.77 229.79 252.82 241.85 212.94 270.62 203.82 273.24 199.76 275.96 220.4 278.57 221.15 276.3 262.77 253.15 276.64 240.93 262.77 229.79"/><path class="cls-18" d="M308.55,235.19s-5.52,8.28-.8,11.56c6.62,4.6,24.5,1.52,26.8-11.2,0,0,12.93,1.23,23.69,7.45,6.34,3.66,9.47,6.23,9.47,17.18,0,17.92-3.86,36.59-7.56,51.6-4.42,17.94-8.8,30.65-8.8,30.65s-40.25,4.58-72.47-5.62c1.94-7.35,10.35-24.6,12-30.81,8.32-32,5.69-38.33,5.69-38.33l-12.32,12.54-13.87-11.14s7.16-7.94,14.37-17.8c2.76-3.77,9.27-13.79,13.85-15.09C300.94,235.51,303.29,235.79,308.55,235.19Z" transform="translate(-7.58 -39.28)"/><path class="cls-19" d="M357.12,269.07S340.91,340.78,301,336.3c0,0-9.71-.39-18.58-9.15l7.53-18.53Z" transform="translate(-7.58 -39.28)"/><path class="cls-16" d="M331.9,290.29a110.81,110.81,0,0,1-24.84,16.93c-12.81,6.33-40.79,14-50.63,16.63l-4.81.9-17.32-.43,3.93-2,8.52-1.57,52-24.79,19.52-16.68Z" transform="translate(-7.58 -39.28)"/><path class="cls-20" d="M358.24,243c4.55,2.29,11.09,8.36,5.68,17.92-5.55,9.79-32.11,29.24-32.11,29.24l-15.95-14,27.23-28.11C346,245,354.47,241.1,358.24,243Z" transform="translate(-7.58 -39.28)"/><path class="cls-16" d="M274,192.14c-1.33,6.62.75,14.75,2.23,17.93,1.23,2.63,3.49,3.84,2.54,7.25-.41,1.48-1.73,8.5-.25,8.29,2.69-.39,3.82-1.27,3.93-1,.87,2.1,3.08,12.55,6.27,14.45s14.1-3.94,20.51-8.24c3.47-2.32,5.89-3.25,8.92-7.08s2.76-4.71,4.43-9.52c2.23-6.44,2.12-11.07.29-18.87C317.43,172,275.64,184.1,274,192.14Z" transform="translate(-7.58 -39.28)"/><path class="cls-21" d="M285.61,216.59c-2.28.41-4.6-1.8-5.15-4.93s.84-6,3.13-6.42,4.59,1.79,5.15,4.92S287.89,216.17,285.61,216.59Zm-1.67-9.37c-1.49.27-2.4,2.14-2,4.18s1.87,3.48,3.36,3.21,2.4-2.15,2-4.19S285.43,207,283.94,207.22Z" transform="translate(-7.58 -39.28)"/><path class="cls-21" d="M275.63,219.46c-2.29.42-4.6-1.79-5.16-4.92s.85-6,3.13-6.43,4.6,1.8,5.16,4.93S277.91,219.05,275.63,219.46ZM274,210.09c-1.49.27-2.4,2.15-2,4.18s1.87,3.48,3.35,3.21,2.4-2.14,2-4.18S275.44,209.82,274,210.09Z" transform="translate(-7.58 -39.28)"/><polygon class="cls-21" points="273.6 174.34 270.63 174.88 270.28 172.9 273.06 172.4 273.6 174.34"/><path class="cls-22" d="M284.29,229.71c-.76-1.62,5.35-.21,5-6,0,0,1.11,3-.84,4.95S284.5,230.16,284.29,229.71Z" transform="translate(-7.58 -39.28)"/><path class="cls-23" d="M327.52,221.13c2.67-7.69,3-10.13,4.17-25.44C333,179,322.1,168.46,316.3,169c-10.24-11-29.7-6.23-38.15,3.89-10,12-9.88,8-18.72,8.61-7.4.48-10.94,7.86-7.87,14.37,6.76,14.3,27.41,9.94,36.78,4,5.57-3.51,14.49-11.68,17.76-15.38,2,14.15,2.64,22.36,13.85,30.11A67.94,67.94,0,0,1,327.52,221.13Z" transform="translate(-7.58 -39.28)"/><path class="cls-24" d="M352,340.6c-2,11.71-13.22,28.75-28,34.1-22.14,8-37.62,6.83-37.62,6.83l-75-18-74.79,93.21L111,445.36s51.87-84.21,64.83-101.91c7.53-10.27,13-25.51,28.27-23s45.63,4.9,76.32,13.37C321.43,339.52,335.79,341.67,352,340.6Z" transform="translate(-7.58 -39.28)"/><path class="cls-13" d="M360.15,363.54s-2.77,4.93-15.17,6.95c-7.26,1.18-12.16-1-28.88,3.57-14.54,3.94-21.91,5-29.79,7.47-7.39,2.33-10.08,1-16.41,2-36,5.37,25.59,21.14,55.18,9.88S360.15,363.54,360.15,363.54Z" transform="translate(-7.58 -39.28)"/><path class="cls-25" d="M271.84,331.62s-68.44-6.9-105.39,25.6l14.37-21.37s8-14.5,15.08-15.66C205.76,318.57,251.84,326.66,271.84,331.62Z" transform="translate(-7.58 -39.28)"/><path class="cls-26" d="M162,317.4s16.72,15.36,0,46.7c0,0,28.29-44.8,42.1-43.63s42.85,2.8,42.85,2.8L169.33,311A33.14,33.14,0,0,0,162,317.4Z" transform="translate(-7.58 -39.28)"/><path class="cls-8" d="M140.8,308.37l63.61,8.38-13.51-59.2a8.57,8.57,0,0,0-7.22-6.6l-51.15-6.74a4.62,4.62,0,0,0-5.08,5.64Z" transform="translate(-7.58 -39.28)"/><path class="cls-27" d="M138.34,308.05,202,316.43l-13.51-59.2a8.55,8.55,0,0,0-7.21-6.6l-51.16-6.74a4.62,4.62,0,0,0-5.08,5.64Z" transform="translate(-7.58 -39.28)"/><path class="cls-28" d="M142.48,311.69l106.36,14a2.52,2.52,0,0,0,2.82-2.18h0a2.54,2.54,0,0,0-2.17-2.84L138.16,306h0A5,5,0,0,0,142.48,311.69Z" transform="translate(-7.58 -39.28)"/><path class="cls-8" d="M165.25,284.38c2-2.78-2.24-1.66-5-3.71s-3-6.51-5-3.72a6.3,6.3,0,0,0,1.32,8.76A6.18,6.18,0,0,0,165.25,284.38Z" transform="translate(-7.58 -39.28)"/><path class="cls-29" d="M348.38,174.62h53.33a5.32,5.32,0,0,1,0,10.64H348.38a5.32,5.32,0,0,1,0-10.64Z" transform="translate(-7.58 -39.28)"/><path class="cls-30" d="M348.38,193h73.48a5.32,5.32,0,0,1,0,10.64H348.38a5.32,5.32,0,0,1,0-10.64Z" transform="translate(-7.58 -39.28)"/><path class="cls-31" d="M348.38,211.11h77.71a5.32,5.32,0,0,1,0,10.64H348.38a5.32,5.32,0,0,1,0-10.64Z" transform="translate(-7.58 -39.28)"/><path class="cls-8" d="M348.38,209.07h77.71a5.32,5.32,0,0,1,0,10.64H348.38a5.32,5.32,0,0,1,0-10.64Z" transform="translate(-7.58 -39.28)"/><path class="cls-8" d="M348.38,190.88h73.48a5.32,5.32,0,0,1,0,10.64H348.38a5.32,5.32,0,0,1,0-10.64Z" transform="translate(-7.58 -39.28)"/><path class="cls-8" d="M348.38,172.69h53.33a5.32,5.32,0,0,1,0,10.64H348.38a5.32,5.32,0,0,1,0-10.64Z" transform="translate(-7.58 -39.28)"/><path class="cls-32" d="M354.56,423.18A4.17,4.17,0,0,1,351.2,422a6.33,6.33,0,0,1-1.88-2.62,14.27,14.27,0,0,1-.46-6.87,42.67,42.67,0,0,1,1.65-6c.48-1.64,1-3.24,1.55-4.83a88,88,0,0,0,2.9-10,31.35,31.35,0,0,0,.66-9.32,23.31,23.31,0,0,0-3-9.4c-1.62-2.8-3.1-7.31-1.33-11,1.53-3.2,4.35-4.15,6.51-3.74,2,.37,3.85,2.1,5.17,4.88-1.54-2.24-3.37-3.92-5.3-4.21s-4,1-5.26,3.76c-1.46,3.22,0,5.63,1.33,7.63a37.47,37.47,0,0,1,4.15,6.87,19.27,19.27,0,0,1,1.39,7.7c-.29,13-11.94,22-9.08,28.62a14.26,14.26,0,0,0,4.19,5.32,7.5,7.5,0,0,1,1.69,1.83,1.63,1.63,0,0,1,.29.81,1.37,1.37,0,0,1-.59,1.18A3.11,3.11,0,0,1,354.56,423.18Z" transform="translate(-7.58 -39.28)"/><path class="cls-33" d="M359.53,420l-.5,0a12.07,12.07,0,0,1-1.6-.09,19.81,19.81,0,0,1-6.11-1.5c-1.74-.84-2.46-1.88-2.63-2.88a3.36,3.36,0,0,1,.23-1.76,5.69,5.69,0,0,1,.9-1.51c5.91-7.43,19.79-15.07,6.12-22.85s11.43-12.35,19.18-6c0,0-10.2-5.36-18.77-.77s9,5.88,8.44,13.81-18.65,15.7-13.34,19.72a16.45,16.45,0,0,0,7.49,3,8.12,8.12,0,0,1,1.71.28C361.07,419.71,360.26,419.92,359.53,420Z" transform="translate(-7.58 -39.28)"/><path class="cls-34" d="M369.18,424.39s6-1.33,5.66,3.38a6.53,6.53,0,0,1-7.25,6" transform="translate(-7.58 -39.28)"/><path class="cls-35" d="M347,416.8h23.34a1.57,1.57,0,0,1,1.53,1.92l-3.56,22A1.56,1.56,0,0,1,366.8,442H350.86a1.57,1.57,0,0,1-1.52-1.2l-3.85-22.05A1.58,1.58,0,0,1,347,416.8Z" transform="translate(-7.58 -39.28)"/><path class="cls-36" d="M368.75,420.05a1.08,1.08,0,0,0-1.28.81c-.3,2-1.43,9.59-1.73,11.57a1.09,1.09,0,0,0,.8,1.28,1.08,1.08,0,0,0,1.28-.81l1.73-11.56A1.1,1.1,0,0,0,368.75,420.05Z" transform="translate(-7.58 -39.28)"/><path class="cls-36" d="M366.72,434.36a1.08,1.08,0,0,0-1.28.81c-.31,2-.09.63-.39,2.61a1.09,1.09,0,0,0,.8,1.28,1.08,1.08,0,0,0,1.28-.8l.39-2.61A1.1,1.1,0,0,0,366.72,434.36Z" transform="translate(-7.58 -39.28)"/><path class="cls-37" d="M105.49,112.93a5.58,5.58,0,0,1-2.94-.85l-17.13-10.7A5.65,5.65,0,0,1,85,92.09l17.13-13A5.56,5.56,0,0,1,110,80.26a5.66,5.66,0,0,1-1.12,7.88l-10.58,8,10.17,6.36a5.64,5.64,0,0,1-3,10.42Z" transform="translate(-7.58 -39.28)"/><path class="cls-38" d="M121.63,112.93a5.54,5.54,0,0,1-4.47-2.26,5.65,5.65,0,0,1,1.11-7.88l10.59-8-10.18-6.36a5.65,5.65,0,0,1-1.8-7.75,5.56,5.56,0,0,1,7.69-1.82l17.13,10.7a5.65,5.65,0,0,1,.41,9.29L125,111.8A5.52,5.52,0,0,1,121.63,112.93Z" transform="translate(-7.58 -39.28)"/><path class="cls-8" d="M105.49,110.1a5.58,5.58,0,0,1-2.94-.85L85.42,98.55A5.65,5.65,0,0,1,85,89.26l17.13-13A5.57,5.57,0,0,1,110,77.43a5.66,5.66,0,0,1-1.12,7.88l-10.58,8,10.17,6.36a5.64,5.64,0,0,1-3,10.42Z" transform="translate(-7.58 -39.28)"/><path class="cls-8" d="M121.63,110.1a5.54,5.54,0,0,1-4.47-2.26,5.65,5.65,0,0,1,1.11-7.88l10.59-8L118.68,85.6a5.66,5.66,0,0,1-1.8-7.76A5.56,5.56,0,0,1,124.57,76l17.13,10.7a5.65,5.65,0,0,1,.41,9.29L125,109A5.52,5.52,0,0,1,121.63,110.1Z" transform="translate(-7.58 -39.28)"/><path class="cls-39" d="M84,343.46a5.57,5.57,0,0,1-2.94-.84L64,331.92a5.65,5.65,0,0,1-.41-9.29l17.13-13a5.57,5.57,0,0,1,7.83,1.12,5.67,5.67,0,0,1-1.12,7.89l-10.58,8L87,333a5.66,5.66,0,0,1,1.81,7.76A5.58,5.58,0,0,1,84,343.46Z" transform="translate(-7.58 -39.28)"/><path class="cls-40" d="M100.16,343.46a5.53,5.53,0,0,1-4.47-2.25,5.64,5.64,0,0,1,1.11-7.88l10.59-8L97.21,319a5.65,5.65,0,0,1-1.8-7.75,5.55,5.55,0,0,1,7.69-1.82l17.13,10.7a5.65,5.65,0,0,1,.41,9.29l-17.13,13A5.51,5.51,0,0,1,100.16,343.46Z" transform="translate(-7.58 -39.28)"/><path class="cls-8" d="M84,340.64a5.58,5.58,0,0,1-2.94-.85L64,329.09a5.65,5.65,0,0,1-.41-9.29l17.13-13A5.56,5.56,0,0,1,88.5,308a5.66,5.66,0,0,1-1.12,7.88l-10.58,8L87,330.22a5.64,5.64,0,0,1-3,10.42Z" transform="translate(-7.58 -39.28)"/><path class="cls-8" d="M100.16,340.64a5.54,5.54,0,0,1-4.47-2.26,5.65,5.65,0,0,1,1.11-7.88l10.59-8-10.18-6.36a5.65,5.65,0,0,1-1.8-7.75,5.56,5.56,0,0,1,7.69-1.82l17.13,10.7a5.65,5.65,0,0,1,.41,9.29l-17.13,13A5.52,5.52,0,0,1,100.16,340.64Z" transform="translate(-7.58 -39.28)"/><path class="cls-41" d="M389.63,162.49a2.2,2.2,0,0,1-1.17-.34l-6.84-4.28a2.25,2.25,0,0,1-.17-3.71L388.3,149a2.21,2.21,0,0,1,3.12.45,2.27,2.27,0,0,1-.44,3.15l-4.23,3.2,4.06,2.53a2.26,2.26,0,0,1,.72,3.1A2.22,2.22,0,0,1,389.63,162.49Z" transform="translate(-7.58 -39.28)"/><path class="cls-42" d="M396.08,162.49a2.23,2.23,0,0,1-1.79-.9,2.26,2.26,0,0,1,.45-3.15l4.23-3.2-4.07-2.54a2.26,2.26,0,0,1-.72-3.1,2.22,2.22,0,0,1,3.07-.72l6.85,4.27a2.26,2.26,0,0,1,.16,3.71L397.42,162A2.23,2.23,0,0,1,396.08,162.49Z" transform="translate(-7.58 -39.28)"/><path class="cls-8" d="M389.63,161.36a2.2,2.2,0,0,1-1.17-.34l-6.84-4.28a2.25,2.25,0,0,1-.17-3.71l6.85-5.17a2.21,2.21,0,0,1,3.12.45,2.27,2.27,0,0,1-.44,3.15l-4.23,3.2,4.06,2.53a2.26,2.26,0,0,1,.72,3.1A2.22,2.22,0,0,1,389.63,161.36Z" transform="translate(-7.58 -39.28)"/><path class="cls-8" d="M396.08,161.36a2.23,2.23,0,0,1-1.79-.9,2.26,2.26,0,0,1,.45-3.15l4.23-3.2-4.07-2.54a2.26,2.26,0,0,1-.72-3.1,2.22,2.22,0,0,1,3.07-.72L404.1,152a2.26,2.26,0,0,1,.16,3.71l-6.84,5.18A2.23,2.23,0,0,1,396.08,161.36Z" transform="translate(-7.58 -39.28)"/><path class="cls-43" d="M471.1,368.66s16,11.94-4.16,23-42.4,1.25-32.84-15.92.63-13.82-4.78-24.5,5.41-11.1,6.65-29.74,29.1-33.09,35.34-23.46-12.06,14-8.73,24.09,17.66,21.57,8.31,32.25S471.1,368.66,471.1,368.66Z" transform="translate(-7.58 -39.28)"/><path class="cls-44" d="M450.58,405.75a.82.82,0,0,1-.59-.24.85.85,0,0,1,0-1.2,12.77,12.77,0,0,0,2.28-5.12c.86-3.39,1.53-9.38-.18-18.69a127.23,127.23,0,0,1-2-19.49c-.26-6.58-.49-12.27-3.1-20.91-2.48-8.23-2.55-14.44-.23-20.13,2.23-5.45,6.65-10.55,14.78-17.07a.85.85,0,0,1,1.2.14.86.86,0,0,1-.14,1.2c-15.22,12.2-18.48,20.46-14,35.36,2.67,8.85,2.9,14.64,3.17,21.34a124.62,124.62,0,0,0,1.95,19.25c3.43,18.79-2.31,25-2.55,25.3A.83.83,0,0,1,450.58,405.75Z" transform="translate(-7.58 -39.28)"/><path class="cls-44" d="M448.56,317a.62.62,0,0,1-.52-.27,6.31,6.31,0,0,1-1-2.69,9.39,9.39,0,0,1,1.79-6.62.64.64,0,0,1,1.06.72c-3.07,4.56-.95,7.72-.86,7.85a.65.65,0,0,1-.15.89A.68.68,0,0,1,448.56,317Z" transform="translate(-7.58 -39.28)"/><path class="cls-44" d="M449.56,349.85a.63.63,0,0,1-.56-.33.63.63,0,0,1,.25-.87,18.6,18.6,0,0,0,4.2-3.44A15.47,15.47,0,0,0,457.8,335a.65.65,0,0,1,.66-.63.64.64,0,0,1,.61.66,17,17,0,0,1-4.71,11.11,19.59,19.59,0,0,1-4.5,3.66A.66.66,0,0,1,449.56,349.85Z" transform="translate(-7.58 -39.28)"/><path class="cls-44" d="M447.15,327.72c-.57,0-.92,0-.95,0a.65.65,0,0,1-.55-.72.64.64,0,0,1,.71-.56h0a10.68,10.68,0,0,0,3.12-.21,8.85,8.85,0,0,0,5.41-3.34.63.63,0,0,1,.89-.13.64.64,0,0,1,.12.9,10.18,10.18,0,0,1-6.2,3.84A12.78,12.78,0,0,1,447.15,327.72Z" transform="translate(-7.58 -39.28)"/><path class="cls-44" d="M451.33,362.15a.64.64,0,0,1-.23,0,19.17,19.17,0,0,1-5.21-3.4,17.88,17.88,0,0,1-6-11.68.64.64,0,0,1,.57-.7.63.63,0,0,1,.69.58,16.34,16.34,0,0,0,5.6,10.84,18.24,18.24,0,0,0,4.83,3.17.64.64,0,0,1,.36.83A.65.65,0,0,1,451.33,362.15Z" transform="translate(-7.58 -39.28)"/><path class="cls-44" d="M453.47,377.36a.65.65,0,0,1,0-1.29,13.52,13.52,0,0,0,5-1.47,10.87,10.87,0,0,0,5.86-8.59.63.63,0,0,1,.72-.55.64.64,0,0,1,.54.73,12.24,12.24,0,0,1-6.58,9.57,14.75,14.75,0,0,1-5.43,1.6Z" transform="translate(-7.58 -39.28)"/><path class="cls-44" d="M451.29,388.11a17.19,17.19,0,0,1-4.26-.52,11.24,11.24,0,0,1-8.59-8.85.64.64,0,1,1,1.24-.29,9.92,9.92,0,0,0,7.66,7.9,16.61,16.61,0,0,0,6,.34.64.64,0,0,1,.74.53.65.65,0,0,1-.53.74A15.6,15.6,0,0,1,451.29,388.11Z" transform="translate(-7.58 -39.28)"/><path class="cls-45" d="M429.24,403.86H475.7a3.14,3.14,0,0,1,3,3.82l-7,31.86a3.12,3.12,0,0,1-3,2.46H437a3.12,3.12,0,0,1-3-2.39l-7.72-31.86A3.13,3.13,0,0,1,429.24,403.86Z" transform="translate(-7.58 -39.28)"/><path class="cls-36" d="M469.72,413a2.69,2.69,0,0,0-3.27,1.87q-1.47,7.35-2.93,14.7a2.73,2.73,0,0,0,1.86,3.29,2.69,2.69,0,0,0,3.27-1.87l2.93-14.7A2.73,2.73,0,0,0,469.72,413Z" transform="translate(-7.58 -39.28)"/></g></g></svg>