<?xml version="1.0" encoding="utf-8"?>
<!-- Generator: Adobe Illustrator 22.0.1, SVG Export Plug-In . SVG Version: 6.00 Build 0)  -->
<svg width="150px" height="42px" viewBox="0 0 634 123" version="1.1" xmlns="http://www.w3.org/2000/svg" xmlns:xlink="http://www.w3.org/1999/xlink">
  <!-- Generator: Sketch 51.1 (57501) - http://www.bohemiancoding.com/sketch -->
  <defs></defs>
  <g id="Page-1" stroke="none" stroke-width="1" fill="none" fill-rule="evenodd">
      <g id="pragma-logo-RGB-template-01" transform="translate(-83.000000, -100.000000)">
          <path d="M218.623,163.675 C207.136,163.675 200.11,152.184 200.11,141.65 C200.11,131.12 207.136,119.787 218.623,119.787 C230.11,119.787 237.136,131.12 237.136,141.65 C237.136,152.184 230.11,163.675 218.623,163.675 Z M224.05,100 C215.751,100 207.452,103.671 202.341,109.735 L202.341,102.551 L180,102.551 L180,222.721 L202.341,222.721 L202.341,173.568 L202.666,173.568 C207.136,179.953 215.589,183.465 223.572,183.465 C246.709,183.465 259.794,162.717 259.794,141.333 C259.794,120.744 246.23,100 224.05,100 Z" id="Fill-1" fill="#1D1D1B"></path>
          <path d="M292.667,110.693 L292.342,110.693 L292.342,102.551 L270,102.551 L270,180.91 L292.342,180.91 L292.342,145.641 C292.342,133.513 293.94,119.787 309.419,119.787 C312.769,119.787 315.966,120.744 318.675,122.662 L321.393,101.915 C318.521,100.795 315.325,100 312.137,100 C303.838,100 297.137,103.829 292.667,110.693" id="Fill-2" fill="#1D1D1B"></path>
          <path d="M364.179,163.675 C352.684,163.675 345.667,152.184 345.667,141.65 C345.667,131.12 352.684,119.787 364.179,119.787 C375.667,119.787 382.846,131.12 382.846,141.65 C382.846,152.184 375.667,163.675 364.179,163.675 Z M380.615,109.893 C375.188,103.509 366.889,100 358.752,100 C336.248,100 323,120.586 323,141.333 C323,162.555 336.085,183.465 359.068,183.465 C367.205,183.465 375.504,179.953 380.298,173.73 L380.615,173.73 L380.615,180.91 L402.641,180.91 L402.641,102.551 L380.615,102.551 L380.615,109.893 Z" id="Fill-3" fill="#1D1D1B"></path>
          <path d="M454.171,163.675 C442.684,163.675 435.658,152.342 435.658,141.812 C435.658,131.278 442.684,119.787 454.171,119.787 C465.666,119.787 472.684,131.278 472.684,141.812 C472.684,152.342 465.666,163.675 454.171,163.675 Z M469.974,110.051 L469.65,110.051 C465.188,103.987 457.205,100 449.385,100 C426.086,100 413,120.744 413,142.291 C413,163.354 425.29,183.465 448.265,183.465 C456.565,183.465 464.863,179.474 469.65,173.09 L469.974,173.09 L469.974,178.196 C469.974,190.008 469.65,203.892 453.855,203.892 C445.394,203.892 439.487,198.465 438.376,190.167 L414.752,190.167 C415.872,211.072 435.18,222.721 454.333,222.721 C483.692,222.721 492.316,201.658 492.316,176.124 L492.316,102.551 L469.974,102.551 L469.974,110.051 Z" id="Fill-4" fill="#1D1D1B"></path>
          <path d="M596.136,100 C587.042,100 578.102,104.629 573.315,112.287 C568.213,103.987 560.547,100 550.811,100 C543.632,100 535.974,103.351 531.666,109.573 L531.342,109.573 L531.342,102.551 L509,102.551 L509,180.91 L531.342,180.91 L531.342,142.449 C531.342,134.15 530.709,117.872 543.153,117.872 C554.803,117.872 553.846,133.513 553.846,141.171 L553.846,180.91 L576.187,180.91 L576.187,142.449 C576.187,134.312 576.033,117.872 588.161,117.872 C599.17,117.872 598.691,132.077 598.691,139.735 L598.691,180.91 L621.033,180.91 L621.033,132.077 C621.033,115 616.085,100 596.136,100" id="Fill-5" fill="#1D1D1B"></path>
          <path d="M672.17,119.787 C683.667,119.787 690.845,131.12 690.845,141.65 C690.845,152.184 683.667,163.675 672.17,163.675 C660.683,163.675 653.658,152.184 653.658,141.65 C653.658,131.12 660.683,119.787 672.17,119.787 Z M667.068,183.465 C675.205,183.465 683.503,179.953 688.291,173.73 L688.607,173.73 L688.607,180.91 L710.632,180.91 L710.632,102.551 L688.607,102.551 L688.607,109.893 C683.187,103.509 674.888,100 666.744,100 C644.248,100 631,120.586 631,141.333 C631,162.555 644.085,183.465 667.068,183.465 Z" id="Fill-6" fill="#1D1D1B"></path>
          <polyline id="Fill-7" fill="#EC615D" points="83 128.186 122.508 142.164 83 156.142 83 177.327 155.331 151.619 155.331 132.709 83 107 83 128.186"></polyline>
          <polygon id="Fill-8" fill="#EC615D" points="637 219.117 716.04 219.117 716.04 200 637 200"></polygon>
      </g>
  </g>
</svg>
